<svg version="1.1" id="Layer_1" xmlns="http://www.w3.org/2000/svg" xmlns:xlink="http://www.w3.org/1999/xlink" x="0px" y="0px"
	 width="100%" viewBox="0 0 594 519" enable-background="new 0 0 594 519" xml:space="preserve">
<path fill="#FFFEFE" opacity="1.000000" stroke="none" 
	d="
M1.000000,197.000000 
	C1.000000,131.347946 1.000000,66.195908 1.000000,1.021930 
	C198.940964,1.021930 396.881927,1.021930 594.911438,1.021930 
	C594.911438,173.902100 594.911438,346.804260 594.911438,519.853210 
	C397.000092,519.853210 199.000061,519.853210 1.000000,519.853210 
	C1.000000,412.451294 1.000000,304.975647 1.000000,197.000000 
M453.112518,146.221207 
	C452.738373,146.139236 452.364258,146.057251 451.360229,145.706940 
	C449.580536,144.069321 447.971893,142.178009 445.989380,140.841202 
	C439.811066,136.675247 433.699066,132.337860 427.172852,128.779617 
	C419.251892,124.460960 411.220581,119.996765 402.708771,117.207726 
	C394.241791,114.433372 385.130280,113.599014 376.280273,112.033226 
	C372.535950,111.370758 368.737671,111.013100 365.507111,110.152466 
	C372.903687,105.512756 380.791992,101.484238 387.548065,96.048485 
	C393.420624,91.323578 397.947845,84.945869 403.186981,79.409668 
	C410.326324,71.865540 413.409119,62.257477 417.508850,52.390900 
	C418.853821,45.649845 420.152649,38.899132 421.559723,32.171070 
	C422.531097,27.526537 420.868500,25.170250 415.112213,25.128500 
	C401.783661,25.545488 388.665253,27.012463 375.997833,33.412262 
	C371.941010,35.059765 367.704926,36.370438 363.860138,38.416405 
	C351.110565,45.200996 340.706482,54.892475 332.268372,66.427902 
	C326.065704,74.907295 320.895599,84.152382 315.433319,93.158112 
	C313.132751,96.951073 311.264526,101.006271 309.199768,104.942261 
	C308.888214,104.777573 308.576630,104.612892 308.265076,104.448212 
	C308.265076,97.008095 308.265076,89.567978 308.662048,81.425339 
	C310.818512,70.963425 312.974976,60.501514 315.048065,50.046253 
	C315.048065,50.046253 315.074799,50.125542 315.590576,49.705173 
	C315.987244,48.455364 316.383911,47.205559 317.379456,45.556705 
	C316.606506,43.711731 316.325684,41.294941 314.969452,40.127769 
	C310.699890,36.453457 306.145905,33.068359 301.449005,29.952801 
	C299.641663,28.753969 297.153168,28.582026 294.311340,28.134855 
	C293.056488,30.344124 291.801666,32.553391 290.657410,34.850357 
	C290.657410,34.850357 290.663696,34.709396 290.125183,35.175705 
	C288.450867,41.775288 286.776581,48.374870 284.799438,55.614922 
	C284.577576,56.753689 284.355682,57.892460 283.981781,59.857529 
	C283.669800,69.572983 283.357819,79.288445 282.379517,88.822815 
	C276.390289,80.830330 270.822968,72.471451 264.291046,64.950310 
	C257.989471,57.694424 250.874771,51.101391 243.731720,44.643673 
	C241.302109,42.447166 237.699387,41.548286 234.323914,39.500736 
	C233.625809,38.868984 232.927689,38.237232 232.155548,37.721455 
	C232.155548,37.721455 232.292816,37.712013 231.886200,37.164520 
	C230.609299,36.714581 229.332397,36.264645 228.048355,35.922565 
	C228.048355,35.922565 228.154404,35.901634 227.834717,35.296028 
	C226.573288,34.809086 225.311874,34.322144 224.051132,33.935444 
	C224.051132,33.935444 224.147903,33.909279 223.685730,33.344772 
	C218.137543,31.667088 212.589340,29.989403 206.234833,28.008829 
	C202.138092,27.729519 198.041351,27.450209 193.114777,27.003304 
	C188.252823,25.780703 183.385910,24.474670 178.898956,27.928732 
	C178.898956,27.928732 178.860428,27.810946 178.157730,28.329155 
	C177.863953,39.309948 179.325150,49.968761 184.098373,60.764736 
	C185.406540,63.793922 186.195328,67.213631 188.122772,69.777191 
	C193.368210,76.753792 199.179321,83.301537 204.610611,90.142815 
	C211.804657,99.204453 221.668518,104.328842 232.005371,109.528282 
	C232.372360,109.880302 232.739334,110.232323 232.574051,110.783234 
	C226.033768,111.562454 219.493469,112.341675 212.109329,112.910469 
	C206.025803,114.550568 199.942261,116.190674 193.948639,117.809357 
	C193.948639,117.809357 193.894669,117.734337 193.159653,117.573532 
	C191.404648,118.367546 189.649643,119.161560 187.970306,119.972389 
	C187.970306,119.972389 187.964645,119.895081 187.491104,119.956184 
	C187.491104,119.956184 187.049591,120.137901 186.362518,120.199455 
	C184.458221,121.460670 182.619278,122.836990 180.637787,123.962296 
	C173.678589,127.914459 165.959961,130.905411 159.839844,135.874863 
	C149.515060,144.258408 138.666946,151.957550 130.192764,162.786438 
	C122.341492,172.819305 115.688843,183.362656 109.903458,194.527939 
	C103.158447,207.545197 98.498375,221.414261 95.876312,235.826736 
	C94.120644,245.476990 93.334892,255.303696 92.008270,265.976746 
	C91.973228,269.408417 91.784683,272.847046 91.940788,276.270020 
	C92.150612,280.870850 92.626495,285.459534 93.007568,290.958374 
	C93.992294,298.409119 95.108772,305.845337 95.934654,313.313629 
	C97.718178,329.441650 103.918121,344.164551 110.541077,358.680664 
	C118.499222,376.123230 128.809311,392.104034 142.093170,406.630890 
	C142.645462,407.191254 143.197769,407.751587 143.846451,408.190948 
	C143.846451,408.190948 143.696716,408.152191 143.849564,408.731781 
	C144.169540,408.923035 144.489517,409.114319 144.816193,409.148895 
	C144.816193,409.148895 144.672546,409.211884 144.778961,409.811737 
	C145.118393,409.978912 145.457825,410.146088 145.800491,410.162598 
	C145.800491,410.162598 145.667404,410.233307 145.745193,410.850525 
	C146.091736,411.002563 146.438278,411.154602 146.786087,411.175049 
	C146.786087,411.175049 146.677841,411.249878 146.708054,411.881622 
	C147.064407,412.023926 147.420746,412.166199 147.705002,412.163971 
	C147.705002,412.163971 147.598709,412.285583 147.618057,412.905396 
	C148.061813,413.330994 148.505569,413.756592 149.196335,414.786987 
	C151.430069,416.866913 153.663803,418.946869 156.217361,421.547028 
	C156.724014,421.827484 157.230667,422.107941 157.830307,422.265564 
	C157.830307,422.265564 157.677277,422.248138 157.719589,422.856506 
	C158.076355,423.012787 158.433105,423.169037 158.827209,423.177917 
	C158.827209,423.177917 158.680557,423.218079 158.783127,423.807678 
	C159.132385,423.975769 159.481644,424.143860 159.914047,424.163300 
	C159.914047,424.163300 159.748856,424.121918 159.861099,424.734741 
	C160.214798,424.939240 160.568497,425.143707 161.302780,425.903107 
	C163.447998,427.844940 165.396225,430.079071 167.771362,431.679749 
	C180.307404,440.128052 192.491882,449.248718 205.684998,456.529449 
	C219.171463,463.972046 233.935913,468.880188 249.132416,471.981476 
	C258.054230,473.802246 267.057770,475.222656 276.857147,477.020813 
	C278.408203,477.349548 279.958771,477.960236 281.510345,477.962769 
	C295.004211,477.984955 308.498230,477.898102 322.827759,477.997620 
	C324.585571,477.680725 326.359924,477.435699 328.098419,477.035034 
	C338.106293,474.728699 348.105621,472.385468 358.027802,470.033630 
	C358.027802,470.033630 358.020111,470.116058 358.539948,469.918549 
	C358.738831,469.620544 358.937714,469.322510 359.970734,469.024567 
	C362.714142,468.526825 365.626556,468.455292 368.167847,467.447723 
	C374.599182,464.897858 380.912048,462.030670 387.181580,459.096558 
	C393.446259,456.164734 399.850433,453.408447 405.740662,449.829895 
	C413.222565,445.284302 420.361115,440.142059 427.433502,434.964478 
	C432.643738,431.150208 437.953186,427.297943 442.432800,422.697632 
	C450.242493,414.677460 457.967926,406.466949 464.763214,397.596619 
	C472.065887,388.063904 479.244171,378.183197 484.675415,367.535492 
	C491.000366,355.135712 495.771179,341.880371 500.415863,328.713898 
	C502.595886,322.534058 502.899872,315.692444 504.754883,308.765594 
	C508.333130,289.244598 508.910522,269.670441 505.971497,249.205536 
	C505.698578,247.475204 505.549164,245.714508 505.132141,244.019623 
	C502.906647,234.974472 500.614258,225.945801 498.300476,216.228256 
	C497.565491,214.101044 496.830505,211.973846 496.090637,209.960968 
	C496.090637,209.960968 496.202789,209.938324 496.117157,209.247070 
	C495.507507,208.102112 494.897858,206.957153 494.360260,205.853851 
	C494.360260,205.853851 494.394165,205.777863 494.473846,205.053696 
	C493.672882,203.325256 492.871918,201.596817 492.049927,199.965546 
	C492.049927,199.965546 492.149323,199.967743 492.067078,199.344666 
	C491.746552,198.838501 491.426025,198.332336 491.086609,197.956757 
	C491.086609,197.956757 491.218170,197.946594 491.129242,197.312668 
	C490.802185,196.805298 490.475128,196.297943 490.130280,195.928116 
	C490.130280,195.928116 490.266418,195.901688 490.128754,195.201309 
	C489.109375,193.701141 488.090027,192.200974 487.198303,189.987198 
	C480.804352,180.310425 474.410400,170.633667 467.878235,160.645096 
	C467.878235,160.645096 467.545135,160.572021 467.372650,160.581497 
	C467.372650,160.581497 467.380920,160.754028 467.391724,160.127609 
	C466.942230,159.696213 466.492767,159.264816 465.892456,158.303329 
	C465.332764,157.851944 464.773071,157.400543 463.959076,156.433487 
	C463.659058,156.201797 463.359070,155.970123 462.981812,155.322876 
	C462.827454,155.045868 462.591949,154.915909 461.996765,154.417984 
	C461.683105,154.193176 461.369446,153.968369 460.886932,153.227783 
	C460.323547,152.801239 459.760193,152.374695 458.899017,151.415100 
	C458.276489,150.902771 457.653961,150.390442 456.892975,149.426285 
	C456.706970,149.136688 456.441956,148.986282 455.795074,148.432220 
	C455.256073,148.173264 454.717102,147.914291 454.117371,147.818924 
	C454.117371,147.818924 454.291870,147.818130 454.220062,147.207458 
	C453.860901,147.042862 453.501770,146.878265 453.125885,146.869278 
	C453.125885,146.869278 453.277283,146.829559 453.112518,146.221207 
z"/>
<path fill="#EC483C" opacity="1.000000" stroke="none" 
	d="
M92.115135,265.051453 
	C93.334892,255.303696 94.120644,245.476990 95.876312,235.826736 
	C98.498375,221.414261 103.158447,207.545197 109.903458,194.527939 
	C115.688843,183.362656 122.341492,172.819305 130.192764,162.786438 
	C138.666946,151.957550 149.515060,144.258408 159.839844,135.874863 
	C165.959961,130.905411 173.678589,127.914459 180.637787,123.962296 
	C182.619278,122.836990 184.458221,121.460670 186.810242,120.332100 
	C187.493530,120.274857 187.729095,120.084969 187.964645,119.895081 
	C187.964645,119.895081 187.970306,119.972389 188.324310,119.964218 
	C190.417114,119.215485 192.155884,118.474915 193.894669,117.734344 
	C193.894669,117.734337 193.948639,117.809357 194.310822,117.880058 
	C200.766403,116.340813 206.859787,114.730858 212.953186,113.120903 
	C219.493469,112.341675 226.033768,111.562454 233.197968,110.803101 
	C236.210114,111.565742 238.598373,112.308525 240.989090,113.023468 
	C240.991562,112.995636 240.946198,113.028305 241.198425,113.294273 
	C253.959534,116.312477 266.468414,119.064713 279.427002,121.908081 
	C295.996399,124.527237 311.984222,121.687271 328.423889,120.870728 
	C330.613495,120.615303 332.455994,120.489716 334.175964,119.963539 
	C341.509216,117.720139 348.806213,115.358284 356.342896,113.019440 
	C356.569336,112.999229 357.018982,112.931587 357.327515,113.018539 
	C358.150848,112.816444 358.665680,112.527405 359.159607,112.273735 
	C359.138733,112.309113 359.214386,112.341164 359.518616,112.326935 
	C360.200012,112.159538 360.577179,112.006371 361.307312,111.808670 
	C362.761475,111.348396 363.862701,110.932648 364.963928,110.516899 
	C368.737671,111.013100 372.535950,111.370758 376.280273,112.033226 
	C385.130280,113.599014 394.241791,114.433372 402.708771,117.207726 
	C411.220581,119.996765 419.251892,124.460960 427.172852,128.779617 
	C433.699066,132.337860 439.811066,136.675247 445.989380,140.841202 
	C447.971893,142.178009 449.580536,144.069321 451.798035,146.093933 
	C452.583008,146.597137 452.930145,146.713348 453.277283,146.829559 
	C453.277283,146.829559 453.125885,146.869278 453.193146,147.090271 
	C453.604218,147.480225 453.948059,147.649185 454.291870,147.818130 
	C454.291870,147.818130 454.117371,147.818924 454.213501,148.066864 
	C454.905731,148.534897 455.501831,148.754974 456.097961,148.975067 
	C456.441956,148.986282 456.706970,149.136688 456.983765,150.005737 
	C457.781982,151.039505 458.489380,151.493820 459.196808,151.948151 
	C459.760193,152.374695 460.323547,152.801239 461.075378,153.771271 
	C461.600983,154.520844 461.938171,154.726929 462.275330,154.932999 
	C462.591949,154.915909 462.827454,155.045868 463.116821,155.812256 
	C463.572327,156.517471 463.892853,156.733307 464.213348,156.949158 
	C464.773071,157.400543 465.332764,157.851944 465.975525,158.910172 
	C466.499359,159.929352 466.940155,160.341690 467.380920,160.754028 
	C467.380920,160.754028 467.372650,160.581497 467.321533,160.772797 
	C467.519073,160.961716 467.767761,160.959305 468.016418,160.956909 
	C474.410400,170.633667 480.804352,180.310425 487.151855,190.712311 
	C488.159119,192.925507 489.212769,194.413589 490.266418,195.901688 
	C490.266418,195.901688 490.130280,195.928116 490.103271,196.203369 
	C490.456879,196.967941 490.837524,197.457275 491.218170,197.946594 
	C491.218170,197.946594 491.086609,197.956757 491.085571,198.226898 
	C491.439484,198.987274 491.794403,199.477509 492.149323,199.967743 
	C492.149323,199.967743 492.049927,199.965546 492.042114,200.312744 
	C492.820923,202.365906 493.607544,204.071884 494.394165,205.777863 
	C494.394165,205.777863 494.360260,205.853851 494.220428,206.197845 
	C494.787994,207.674011 495.495392,208.806168 496.202789,209.938324 
	C496.202789,209.938324 496.090637,209.960968 496.063354,210.296997 
	C496.805725,212.725815 497.575378,214.818619 498.345032,216.911423 
	C500.614258,225.945801 502.906647,234.974472 505.132141,244.019623 
	C505.549164,245.714508 505.698578,247.475204 505.547302,249.706070 
	C504.840088,250.894043 504.266876,251.604355 504.318970,252.265366 
	C504.818878,258.607391 506.094604,264.966797 505.852997,271.271576 
	C505.416931,282.649017 504.053925,293.989502 503.191345,305.354004 
	C503.097504,306.590637 503.748505,307.883789 504.054016,309.150726 
	C502.899872,315.692444 502.595886,322.534058 500.415863,328.713898 
	C495.771179,341.880371 491.000366,355.135712 484.675415,367.535492 
	C479.244171,378.183197 472.065887,388.063904 464.763214,397.596619 
	C457.967926,406.466949 450.242493,414.677460 442.432800,422.697632 
	C437.953186,427.297943 432.643738,431.150208 427.433502,434.964478 
	C420.361115,440.142059 413.222565,445.284302 405.740662,449.829895 
	C399.850433,453.408447 393.446259,456.164734 387.181580,459.096558 
	C380.912048,462.030670 374.599182,464.897858 368.167847,467.447723 
	C365.626556,468.455292 362.714142,468.526825 359.310547,469.142395 
	C358.440247,469.545532 358.230194,469.830780 358.020111,470.116058 
	C358.020111,470.116058 358.027802,470.033630 357.638550,470.017822 
	C355.641815,470.245148 354.030334,470.464722 352.427460,470.735199 
	C341.964172,472.500946 331.502747,474.277679 320.655334,476.080872 
	C315.221863,476.402405 310.162964,477.055725 305.127991,476.905701 
	C296.256805,476.641357 287.402252,475.844177 278.533966,475.408417 
	C277.722626,475.368561 276.862183,476.327850 276.024536,476.823151 
	C267.057770,475.222656 258.054230,473.802246 249.132416,471.981476 
	C233.935913,468.880188 219.171463,463.972046 205.684998,456.529449 
	C192.491882,449.248718 180.307404,440.128052 167.771362,431.679749 
	C165.396225,430.079071 163.447998,427.844940 161.026917,425.328796 
	C160.416992,424.543610 160.082916,424.332764 159.748840,424.121918 
	C159.748856,424.121918 159.914047,424.163300 159.822617,423.933105 
	C159.380981,423.541260 159.030777,423.379669 158.680557,423.218079 
	C158.680557,423.218079 158.827209,423.177917 158.776825,422.944031 
	C158.376724,422.556152 158.026993,422.402130 157.677277,422.248138 
	C157.677277,422.248138 157.830307,422.265564 157.748917,421.992432 
	C157.077530,421.488495 156.487518,421.257629 155.897522,421.026794 
	C153.663803,418.946869 151.430069,416.866913 149.074539,414.141052 
	C148.501404,413.091919 148.050064,412.688751 147.598709,412.285583 
	C147.598709,412.285583 147.705002,412.163971 147.713943,411.931091 
	C147.374542,411.548767 147.026184,411.399323 146.677841,411.249878 
	C146.677841,411.249878 146.786087,411.175049 146.752823,410.935364 
	C146.368851,410.541534 146.018127,410.387421 145.667404,410.233307 
	C145.667404,410.233307 145.800491,410.162598 145.760529,409.932373 
	C145.371231,409.538727 145.021896,409.375305 144.672546,409.211884 
	C144.672546,409.211884 144.816193,409.148895 144.772751,408.922607 
	C144.385101,408.514954 144.040909,408.333588 143.696716,408.152191 
	C143.696716,408.152191 143.846451,408.190948 143.860748,407.915466 
	C143.291946,407.101685 142.708832,406.563324 142.125717,406.024963 
	C128.809311,392.104034 118.499222,376.123230 110.541077,358.680664 
	C103.918121,344.164551 97.718178,329.441650 95.934654,313.313629 
	C95.108772,305.845337 93.992294,298.409119 92.990356,290.033813 
	C92.984375,286.626007 93.092072,284.138641 92.987183,281.660309 
	C92.752762,276.121643 92.412361,270.587463 92.115135,265.051453 
M187.575439,204.304306 
	C187.406067,204.694656 187.236679,205.085022 186.844193,206.086456 
	C185.515350,207.290726 183.838150,208.274872 182.915207,209.735611 
	C177.653015,218.064117 171.855774,226.163071 167.613861,234.999359 
	C162.669128,245.299728 158.438293,256.072296 155.208038,267.026367 
	C152.489136,276.246368 151.191376,285.969788 150.136337,295.566193 
	C149.446487,301.840912 148.530701,308.917664 156.445084,313.446198 
	C165.131943,313.589508 173.818634,313.751801 182.506073,313.825348 
	C182.988068,313.829437 183.476273,313.098358 184.344086,312.132233 
	C188.229523,308.364716 188.229614,306.854645 183.717438,301.583923 
	C180.636490,301.388428 177.526016,300.838379 174.482452,301.091766 
	C171.073303,301.375671 169.026962,300.287292 167.931168,296.148804 
	C169.095947,279.620758 172.324890,263.675049 180.801910,248.555191 
	C185.568054,251.308105 189.864563,253.576309 193.925095,256.208557 
	C196.732422,258.028381 201.216248,257.839722 202.381287,254.655869 
	C203.083191,252.737686 202.157135,249.151718 200.638397,247.717316 
	C197.525696,244.777496 193.731979,242.325424 189.826340,240.522324 
	C185.698990,238.616867 186.382095,236.096176 188.105759,233.425156 
	C190.968674,228.988678 193.880646,224.517410 197.317596,220.531265 
	C205.071396,211.538559 213.349258,203.014801 223.224869,196.296539 
	C224.254471,195.596115 227.150330,195.905334 227.877304,196.802231 
	C230.616104,200.181168 232.723221,204.063400 235.266464,207.614197 
	C236.198090,208.914902 238.021423,210.939240 238.855164,210.689316 
	C241.244675,209.973022 243.669281,208.580261 245.383774,206.787552 
	C246.091843,206.047165 245.428650,203.394684 244.682251,201.986526 
	C243.026001,198.861893 240.923080,195.974014 238.904144,192.364365 
	C238.523743,191.932968 238.143341,191.501572 237.899048,191.067993 
	C237.899048,191.067993 237.863586,191.199402 237.963928,190.269485 
	C237.778351,189.357986 237.592773,188.446487 237.673096,187.526886 
	C237.673096,187.526886 237.736603,187.785217 238.326248,187.742630 
	C238.522385,187.421738 238.718521,187.100830 238.930832,186.898148 
	C238.930832,186.898148 238.813522,186.876419 239.496170,186.924698 
	C239.975098,186.535187 240.454041,186.145676 240.940689,185.894836 
	C240.940689,185.894836 240.804916,185.865646 241.485046,185.921341 
	C241.973312,185.545425 242.461594,185.169510 242.952377,184.920273 
	C242.952377,184.920273 242.828354,184.894257 243.501404,184.920059 
	C243.985764,184.548828 244.470123,184.177597 244.958313,183.927856 
	C244.958313,183.927856 244.838715,183.906158 245.504196,183.913345 
	C245.990601,183.555389 246.477005,183.197433 247.261475,182.345963 
	C247.803421,182.165558 248.345367,181.985138 249.205353,182.374390 
	C250.109024,181.797180 251.012680,181.219955 252.476166,180.096634 
	C259.039551,178.482132 265.552551,176.607880 272.179749,175.322327 
	C279.583801,173.886093 287.091492,172.984055 294.896179,171.797501 
	C294.896179,178.726944 294.772919,184.872086 294.979279,191.006134 
	C295.033691,192.622955 295.800629,195.295074 296.777313,195.569122 
	C298.614380,196.084595 300.869141,195.320847 302.893036,194.845428 
	C303.584869,194.682922 304.105255,193.790558 305.110901,192.984406 
	C305.236755,192.897446 305.481476,192.757370 305.470062,192.731750 
	C305.359528,192.484390 305.205963,192.256256 304.941925,191.212982 
	C305.000000,190.126831 305.058044,189.040695 305.620544,187.548035 
	C305.451172,186.380051 305.281799,185.212051 304.946136,183.236862 
	C305.002014,182.143890 305.057892,181.050919 305.555634,179.695862 
	C305.409058,179.144867 305.262482,178.593887 304.949066,177.237106 
	C305.001495,176.145370 305.053925,175.053650 305.697754,173.742920 
	C306.782349,173.203812 307.866943,172.664703 309.764648,171.989212 
	C314.088593,172.764313 318.399780,173.622421 322.740509,174.287949 
	C326.149048,174.810532 329.798004,174.504395 332.982086,175.603638 
	C340.510895,178.202820 347.841187,181.383835 355.220459,184.405975 
	C357.932770,185.516785 360.557037,186.842636 363.681335,188.282303 
	C360.772308,193.049576 358.045380,197.068848 355.837646,201.355515 
	C354.943024,203.092529 354.473297,205.675873 355.111603,207.389328 
	C355.690674,208.943710 358.187012,210.948212 359.569366,210.761795 
	C361.564331,210.492706 363.763763,208.764603 365.074219,207.047256 
	C367.421204,203.971634 368.878601,200.201065 371.317719,197.219986 
	C372.256104,196.073059 375.455597,195.339050 376.599121,196.055054 
	C380.732269,198.642944 384.762787,201.592743 388.210938,205.029129 
	C393.059631,209.861282 397.524872,215.111328 401.837891,220.438690 
	C406.259125,225.899704 410.299377,231.669174 414.861969,237.779892 
	C409.755890,240.664841 405.599274,242.848740 401.631866,245.334625 
	C400.007538,246.352432 397.795380,247.908829 397.622009,249.423035 
	C397.355164,251.753662 398.177765,254.534103 399.447296,256.551575 
	C399.937866,257.331146 403.106842,257.032745 404.714874,256.382690 
	C408.813995,254.725540 412.796509,252.731659 416.682404,250.610016 
	C420.063538,248.763962 421.035553,250.669083 421.956604,253.353455 
	C423.171997,256.895721 424.880829,260.296478 425.803650,263.904816 
	C427.147827,269.161072 427.980743,274.548096 428.935181,280.617035 
	C429.003418,282.380310 429.039246,284.145569 429.146118,285.906525 
	C429.439392,290.738190 429.762512,295.568054 430.062653,300.224976 
	C424.843353,300.931213 420.379822,301.535156 415.706299,302.221802 
	C415.706299,302.221802 415.582184,302.033234 414.922302,302.218292 
	C414.630432,302.547668 414.338562,302.877045 413.941406,303.634155 
	C413.772369,303.911774 413.525360,304.048798 412.597321,304.351929 
	C412.413605,304.760498 412.229889,305.169037 412.137146,306.282959 
	C413.457520,308.498016 414.777924,310.713074 415.837952,313.487793 
	C424.583130,313.639130 433.328125,313.818756 442.073914,313.881805 
	C442.697601,313.886322 443.327454,313.035889 444.359528,312.049713 
	C448.047852,310.123932 449.468781,307.133667 449.148834,302.966644 
	C448.773651,298.080200 448.788391,293.163818 449.259216,287.757568 
	C448.805817,283.280853 448.866089,278.674500 447.776581,274.358337 
	C446.208374,268.145966 443.804047,262.144684 441.890350,256.030487 
	C441.890350,256.030487 441.883392,256.165985 441.963531,255.347015 
	C440.855133,252.626938 439.746735,249.906845 438.762573,247.092010 
	C438.762573,247.092010 438.814423,247.239380 438.770996,246.670990 
	C438.491241,246.438034 438.211517,246.205078 437.795319,245.791260 
	C437.795319,245.791260 437.930603,245.609512 437.936249,244.827728 
	C437.539307,244.233871 437.142365,243.640030 436.899017,243.061050 
	C436.899017,243.061050 436.848083,243.206711 436.913605,242.525650 
	C436.541931,242.033035 436.170288,241.540421 435.923462,241.045929 
	C435.923462,241.045929 435.897919,241.168167 435.920227,240.499054 
	C435.556641,240.012054 435.193024,239.525040 434.941376,239.040054 
	C434.941376,239.040054 434.917358,239.149384 434.917114,238.488251 
	C434.561737,238.003174 434.206360,237.518082 433.948944,237.038177 
	C433.948944,237.038177 433.924103,237.133087 433.971710,236.391510 
	C433.515442,235.669662 433.059174,234.947830 432.723633,234.119644 
	C432.723633,234.119644 432.781311,234.269836 432.748993,233.687439 
	C432.443085,233.477081 432.137177,233.266724 431.934906,233.050797 
	C431.934906,233.050797 431.914734,233.152557 431.917358,232.482346 
	C431.536407,232.006943 431.155457,231.531540 430.910339,231.062393 
	C430.910339,231.062393 430.870422,231.192383 430.958221,230.429138 
	C430.245667,229.653595 429.533081,228.878052 428.923340,228.073135 
	C428.923340,228.073135 428.920227,228.180038 428.832764,227.689499 
	C428.705109,227.353546 428.468628,227.135849 427.966644,226.336380 
	C422.202179,218.689423 416.732513,210.794601 410.578735,203.474945 
	C405.765320,197.749527 400.795563,191.694458 394.671234,187.630493 
	C382.804474,179.756027 370.271423,172.807693 357.642914,166.183899 
	C347.490692,160.858902 336.282990,158.374924 324.649536,156.428452 
	C324.394928,156.221680 324.103607,156.119003 323.946106,156.063660 
	C323.946106,156.063660 323.977966,156.240555 323.525909,155.554214 
	C311.030426,155.050201 298.535553,154.527817 286.037720,154.091507 
	C285.347198,154.067398 284.631744,154.757599 283.175018,155.353546 
	C280.813843,155.577026 278.452637,155.800507 275.198486,155.994980 
	C267.081482,156.583740 259.029633,157.413956 252.024338,162.111099 
	C252.024338,162.111099 252.154160,162.107483 251.325073,162.040802 
	C247.246811,163.777756 243.168564,165.514725 239.060867,167.127808 
	C239.060867,167.127808 239.187714,167.138733 238.442368,167.035751 
	C237.309052,167.741577 236.175735,168.447403 235.040771,169.056854 
	C235.040771,169.056854 235.135086,169.076859 234.392715,169.034073 
	C233.662155,169.481888 232.931595,169.929688 232.112579,170.245193 
	C232.112579,170.245193 232.268570,170.213715 231.692566,170.245895 
	C231.475876,170.542221 231.259171,170.838547 231.042923,171.045883 
	C231.042923,171.045883 231.129700,171.065720 230.467194,171.084305 
	C229.994125,171.455063 229.521057,171.825836 229.050003,172.073364 
	C229.050003,172.073364 229.169662,172.102844 228.491470,172.077393 
	C228.017258,172.467651 227.543030,172.857910 227.070404,173.107285 
	C227.070404,173.107285 227.205154,173.148438 226.472336,173.040619 
	C225.645309,173.680710 224.818283,174.320816 223.626907,175.578049 
	C221.192520,176.783844 218.506119,177.654922 216.373077,179.260956 
	C210.932831,183.357025 205.739563,187.781128 199.823608,192.231827 
	C199.559006,192.545242 199.294403,192.858643 199.020386,193.031342 
	C199.020386,193.031342 199.161392,193.033295 198.621765,193.252472 
	C198.432846,193.582642 198.243927,193.912827 197.859100,194.798630 
	C196.972122,195.546494 196.085129,196.294342 194.668076,197.265152 
	C194.460129,197.578125 194.252182,197.891098 193.837219,198.783020 
	C192.638916,199.873962 191.440613,200.964905 189.680832,202.230301 
	C189.466705,202.544540 189.252563,202.858780 189.043350,203.029129 
	C189.043350,203.029129 189.185837,203.049713 188.632339,203.226746 
	C188.441498,203.550705 188.250656,203.874664 188.013107,204.059692 
	C188.013107,204.059692 188.155548,204.025116 187.575439,204.304306 
M288.009003,326.576508 
	C288.329468,326.689911 288.649963,326.803314 289.298950,327.098450 
	C289.298950,327.098450 289.674133,327.084198 290.216095,327.598755 
	C292.131378,328.028656 294.046631,328.458557 296.646729,329.019379 
	C297.108032,328.983276 297.569336,328.947174 298.673157,329.004944 
	C299.103394,328.970856 299.533630,328.936768 300.729004,329.017242 
	C301.495514,328.945221 302.262054,328.873230 303.740479,328.822205 
	C305.287811,328.245300 306.835144,327.668396 308.721649,327.118500 
	C308.721649,327.118500 309.010834,326.939148 309.638916,326.880188 
	C310.476135,326.292389 311.313385,325.704620 312.062531,325.072021 
	C312.062531,325.072021 312.045074,325.169312 312.651215,325.085388 
	C313.126068,324.730591 313.600922,324.375824 314.698212,323.809570 
	C316.472351,321.895721 318.246490,319.981873 320.481323,317.673615 
	C320.757599,317.136810 321.033875,316.599976 321.741425,315.808899 
	C321.862640,315.334595 321.983887,314.860260 322.609283,313.946411 
	C322.716553,313.306610 322.823822,312.666809 323.055786,311.628815 
	C323.055786,311.628815 323.065125,311.211609 323.698730,310.732971 
	C326.007782,303.676514 325.495239,296.995605 321.006622,290.390839 
	C321.006622,290.390839 320.866730,289.963715 320.839050,289.434448 
	C320.582184,289.198914 320.325317,288.963348 319.861725,288.106628 
	C310.008331,275.883728 302.998383,277.469269 288.545654,280.387421 
	C281.089569,273.991638 273.805939,267.713165 266.487549,261.475433 
	C260.165710,256.087128 253.955048,250.546417 247.344315,245.536087 
	C245.871201,244.419601 242.929932,245.240265 240.664612,245.169022 
	C240.706299,247.635330 239.728165,250.926834 240.950668,252.437698 
	C250.952011,264.798096 261.135803,277.032288 271.791382,288.828583 
	C274.928925,292.302063 275.427826,295.837280 274.669495,299.540771 
	C272.561646,309.835541 276.381989,317.569916 284.336121,324.484253 
	C284.875610,324.702209 285.415100,324.920197 285.962585,325.056183 
	C285.962585,325.056183 285.881958,325.073029 286.203217,325.607391 
	C286.785614,325.798401 287.368042,325.989410 287.961731,326.064362 
	C287.961731,326.064362 287.845734,326.075775 288.009003,326.576508 
z"/>
<path fill="#1E8463" opacity="1.000000" stroke="none" 
	d="
M365.235535,110.334686 
	C363.862701,110.932648 362.761475,111.348396 361.137268,111.596436 
	C360.147644,111.732872 359.681000,112.037018 359.214386,112.341164 
	C359.214386,112.341164 359.138733,112.309113 358.851349,112.207642 
	C358.048981,112.381317 357.533997,112.656456 357.018982,112.931595 
	C357.018982,112.931587 356.569336,112.999229 355.937073,113.010887 
	C348.012299,114.920937 340.708191,116.776665 333.435211,118.747238 
	C331.579620,119.249992 329.822693,120.116753 328.020416,120.816261 
	C311.984222,121.687271 295.996399,124.527237 279.330475,121.537003 
	C272.262177,119.730362 265.733582,118.416595 259.219910,117.032547 
	C253.120453,115.736511 247.036804,114.366020 240.946198,113.028305 
	C240.946198,113.028305 240.991562,112.995636 240.842346,112.699638 
	C237.744797,111.282379 234.796463,110.161118 231.848114,109.039856 
	C221.668518,104.328842 211.804657,99.204453 204.610611,90.142815 
	C199.179321,83.301537 193.368210,76.753792 188.122772,69.777191 
	C186.195328,67.213631 185.406540,63.793922 184.033798,59.989243 
	C182.266281,48.746147 180.563354,38.278545 178.860428,27.810946 
	C178.860428,27.810946 178.898956,27.928732 179.277176,27.946825 
	C182.731583,27.687630 185.804199,27.355698 188.885361,27.154837 
	C190.564301,27.045389 192.257721,27.158283 193.944611,27.170898 
	C198.041351,27.450209 202.138092,27.729519 206.720398,28.498690 
	C212.853287,30.628792 218.500595,32.269035 224.147903,33.909279 
	C224.147903,33.909279 224.051132,33.935444 224.158905,34.234062 
	C225.562592,34.988998 226.858505,35.445320 228.154404,35.901634 
	C228.154404,35.901634 228.048355,35.922565 228.164932,36.224487 
	C229.618607,36.921608 230.955719,37.316811 232.292816,37.712013 
	C232.292816,37.712013 232.155548,37.721455 232.203339,37.987312 
	C233.044998,38.854267 233.838852,39.455368 234.632706,40.056465 
	C237.699387,41.548286 241.302109,42.447166 243.731720,44.643673 
	C250.874771,51.101391 257.989471,57.694424 264.291046,64.950310 
	C270.822968,72.471451 276.390289,80.830330 283.094971,88.804489 
	C284.198944,87.960480 284.915741,87.138611 284.925354,86.308540 
	C285.022217,77.954498 285.025452,69.598969 284.978180,61.244297 
	C284.974030,60.505039 284.428101,59.768841 284.133789,59.031227 
	C284.355682,57.892460 284.577576,56.753689 285.229370,55.067642 
	C287.327393,47.916706 288.995544,41.313049 290.663696,34.709396 
	C290.663696,34.709396 290.657410,34.850357 290.964417,34.752247 
	C292.505981,32.416828 293.740540,30.179520 294.975037,27.942204 
	C297.153168,28.582026 299.641663,28.753969 301.449005,29.952801 
	C306.145905,33.068359 310.699890,36.453457 314.969452,40.127769 
	C316.325684,41.294941 316.606506,43.711731 316.741516,45.872894 
	C315.760651,47.501236 315.417725,48.813389 315.074799,50.125542 
	C315.074799,50.125542 315.048065,50.046253 314.745972,50.163071 
	C314.098450,50.627079 313.556641,50.917259 313.436859,51.329937 
	C311.302734,58.683105 308.925690,65.986366 307.281921,73.450348 
	C306.689575,76.140228 307.885315,79.223900 308.265076,82.127861 
	C308.265076,89.567978 308.265076,97.008095 308.265076,104.448212 
	C308.576630,104.612892 308.888214,104.777573 309.199768,104.942261 
	C311.264526,101.006271 313.132751,96.951073 315.433319,93.158112 
	C320.895599,84.152382 326.065704,74.907295 332.268372,66.427902 
	C340.706482,54.892475 351.110565,45.200996 363.860138,38.416405 
	C367.704926,36.370438 371.941010,35.059765 376.602356,33.172947 
	C379.002045,32.809269 381.012238,33.169018 382.557800,32.482613 
	C393.252045,27.733118 404.522217,26.804144 416.418091,27.002621 
	C417.886230,27.900740 419.695923,28.690821 419.830719,29.703781 
	C420.146729,32.078590 419.808167,34.580814 419.469269,36.994213 
	C418.724121,42.301411 417.814728,47.585560 416.972382,52.879120 
	C413.409119,62.257477 410.326324,71.865540 403.186981,79.409668 
	C397.947845,84.945869 393.420624,91.323578 387.548065,96.048485 
	C380.791992,101.484238 372.903687,105.512756 365.235535,110.334686 
z"/>
<path fill="#EA3024" opacity="1.000000" stroke="none" 
	d="
M504.404419,308.958160 
	C503.748505,307.883789 503.097504,306.590637 503.191345,305.354004 
	C504.053925,293.989502 505.416931,282.649017 505.852997,271.271576 
	C506.094604,264.966797 504.818878,258.607391 504.318970,252.265366 
	C504.266876,251.604355 504.840088,250.894043 505.459351,250.118729 
	C508.910522,269.670441 508.333130,289.244598 504.404419,308.958160 
z"/>
<path fill="#EB3326" opacity="1.000000" stroke="none" 
	d="
M276.440857,476.921997 
	C276.862183,476.327850 277.722626,475.368561 278.533966,475.408417 
	C287.402252,475.844177 296.256805,476.641357 305.127991,476.905701 
	C310.162964,477.055725 315.221863,476.402405 320.744995,476.317688 
	C321.477386,476.964233 321.734802,477.403931 321.992218,477.843658 
	C308.498230,477.898102 295.004211,477.984955 281.510345,477.962769 
	C279.958771,477.960236 278.408203,477.349548 276.440857,476.921997 
z"/>
<path fill="#197652" opacity="1.000000" stroke="none" 
	d="
M415.998474,26.995863 
	C404.522217,26.804144 393.252045,27.733118 382.557800,32.482613 
	C381.012238,33.169018 379.002045,32.809269 376.816345,32.902466 
	C388.665253,27.012463 401.783661,25.545488 415.561371,25.509895 
	C416.006531,26.259483 416.002502,26.627672 415.998474,26.995863 
z"/>
<path fill="#E82619" opacity="1.000000" stroke="none" 
	d="
M322.409973,477.920654 
	C321.734802,477.403931 321.477386,476.964233 321.130341,476.287659 
	C331.502747,474.277679 341.964172,472.500946 352.427460,470.735199 
	C354.030334,470.464722 355.641815,470.245148 357.678589,470.028381 
	C348.105621,472.385468 338.106293,474.728699 328.098419,477.035034 
	C326.359924,477.435699 324.585571,477.680725 322.409973,477.920654 
z"/>
<path fill="#13724C" opacity="1.000000" stroke="none" 
	d="
M308.463562,81.776596 
	C307.885315,79.223900 306.689575,76.140228 307.281921,73.450348 
	C308.925690,65.986366 311.302734,58.683105 313.436859,51.329937 
	C313.556641,50.917259 314.098450,50.627079 314.787659,50.159744 
	C312.974976,60.501514 310.818512,70.963425 308.463562,81.776596 
z"/>
<path fill="#0C704A" opacity="1.000000" stroke="none" 
	d="
M284.057800,59.444374 
	C284.428101,59.768841 284.974030,60.505039 284.978180,61.244297 
	C285.025452,69.598969 285.022217,77.954498 284.925354,86.308540 
	C284.915741,87.138611 284.198944,87.960480 283.428101,88.895035 
	C283.357819,79.288445 283.669800,69.572983 284.057800,59.444374 
z"/>
<path fill="#13724C" opacity="1.000000" stroke="none" 
	d="
M416.418060,27.002621 
	C416.002502,26.627672 416.006531,26.259483 416.008942,25.615088 
	C420.868500,25.170250 422.531097,27.526537 421.559723,32.171070 
	C420.152649,38.899132 418.853821,45.649845 417.240601,52.635010 
	C417.814728,47.585560 418.724121,42.301411 419.469269,36.994213 
	C419.808167,34.580814 420.146729,32.078590 419.830719,29.703781 
	C419.695923,28.690821 417.886230,27.900740 416.418060,27.002621 
z"/>
<path fill="#0F6F49" opacity="1.000000" stroke="none" 
	d="
M178.509079,28.070049 
	C180.563354,38.278545 182.266281,48.746147 183.972641,59.628059 
	C179.325150,49.968761 177.863953,39.309948 178.509079,28.070049 
z"/>
<path fill="#116F49" opacity="1.000000" stroke="none" 
	d="
M290.394440,34.942551 
	C288.995544,41.313049 287.327393,47.916706 285.380798,54.747410 
	C286.776581,48.374870 288.450867,41.775288 290.394440,34.942551 
z"/>
<path fill="#E72115" opacity="1.000000" stroke="none" 
	d="
M212.531250,113.015686 
	C206.859787,114.730858 200.766403,116.340813 194.265869,117.890762 
	C199.942261,116.190674 206.025803,114.550568 212.531250,113.015686 
z"/>
<path fill="#116F49" opacity="1.000000" stroke="none" 
	d="
M223.916809,33.627026 
	C218.500595,32.269035 212.853287,30.628792 207.123566,28.650133 
	C212.589340,29.989403 218.137543,31.667088 223.916809,33.627026 
z"/>
<path fill="#E51309" opacity="1.000000" stroke="none" 
	d="
M92.061707,265.514099 
	C92.412361,270.587463 92.752762,276.121643 92.987183,281.660309 
	C93.092072,284.138641 92.984375,286.626007 92.980667,289.581360 
	C92.626495,285.459534 92.150612,280.870850 91.940788,276.270020 
	C91.784683,272.847046 91.973228,269.408417 92.061707,265.514099 
z"/>
<path fill="#0F6F49" opacity="1.000000" stroke="none" 
	d="
M193.529694,27.087101 
	C192.257721,27.158283 190.564301,27.045389 188.885361,27.154837 
	C185.804199,27.355698 182.731583,27.687630 179.226868,27.910662 
	C183.385910,24.474670 188.252823,25.780703 193.529694,27.087101 
z"/>
<path fill="#0E8D68" opacity="1.000000" stroke="none" 
	d="
M231.926743,109.284073 
	C234.796463,110.161118 237.744797,111.282379 240.839874,112.727478 
	C238.598373,112.308525 236.210114,111.565742 233.464096,110.703651 
	C232.739334,110.232323 232.372360,109.880302 231.926743,109.284073 
z"/>
<path fill="#116F49" opacity="1.000000" stroke="none" 
	d="
M294.643188,28.038532 
	C293.740540,30.179520 292.505981,32.416828 290.909149,34.708397 
	C291.801666,32.553391 293.056488,30.344124 294.643188,28.038532 
z"/>
<path fill="#E9271B" opacity="1.000000" stroke="none" 
	d="
M498.322754,216.569839 
	C497.575378,214.818619 496.805725,212.725815 496.065796,210.239838 
	C496.830505,211.973846 497.565491,214.101044 498.322754,216.569839 
z"/>
<path fill="#E9271B" opacity="1.000000" stroke="none" 
	d="
M490.197571,195.551498 
	C489.212769,194.413589 488.159119,192.925507 487.088074,191.069107 
	C488.090027,192.200974 489.109375,193.701141 490.197571,195.551498 
z"/>
<path fill="#E9271B" opacity="1.000000" stroke="none" 
	d="
M494.434021,205.415771 
	C493.607544,204.071884 492.820923,202.365906 492.052612,200.264145 
	C492.871918,201.596817 493.672882,203.325256 494.434021,205.415771 
z"/>
<path fill="#E72115" opacity="1.000000" stroke="none" 
	d="
M193.527161,117.653938 
	C192.155884,118.474915 190.417114,119.215485 188.286484,119.955818 
	C189.649643,119.161560 191.404648,118.367546 193.527161,117.653938 
z"/>
<path fill="#E9271B" opacity="1.000000" stroke="none" 
	d="
M496.159973,209.592697 
	C495.495392,208.806168 494.787994,207.674011 494.184387,206.177032 
	C494.897858,206.957153 495.507507,208.102112 496.159973,209.592697 
z"/>
<path fill="#116F49" opacity="1.000000" stroke="none" 
	d="
M227.994568,35.598831 
	C226.858505,35.445320 225.562592,34.988998 224.158569,34.183941 
	C225.311874,34.322144 226.573288,34.809086 227.994568,35.598831 
z"/>
<path fill="#116F49" opacity="1.000000" stroke="none" 
	d="
M232.089508,37.438267 
	C230.955719,37.316811 229.618607,36.921608 228.168503,36.170559 
	C229.332397,36.264645 230.609299,36.714581 232.089508,37.438267 
z"/>
<path fill="#13724C" opacity="1.000000" stroke="none" 
	d="
M315.332703,49.915359 
	C315.417725,48.813389 315.760651,47.501236 316.442078,46.072418 
	C316.383911,47.205559 315.987244,48.455364 315.332703,49.915359 
z"/>
<path fill="#116F49" opacity="1.000000" stroke="none" 
	d="
M234.478302,39.778603 
	C233.838852,39.455368 233.044998,38.854267 232.240356,37.929321 
	C232.927689,38.237232 233.625809,38.868984 234.478302,39.778603 
z"/>
<path fill="#E92A1D" opacity="1.000000" stroke="none" 
	d="
M142.109436,406.327942 
	C142.708832,406.563324 143.291946,407.101685 143.812561,407.975952 
	C143.197769,407.751587 142.645462,407.191254 142.109436,406.327942 
z"/>
<path fill="#E82619" opacity="1.000000" stroke="none" 
	d="
M459.047913,151.681625 
	C458.489380,151.493820 457.781982,151.039505 457.052979,150.231659 
	C457.653961,150.390442 458.276489,150.902771 459.047913,151.681625 
z"/>
<path fill="#E82619" opacity="1.000000" stroke="none" 
	d="
M455.946533,148.703644 
	C455.501831,148.754974 454.905731,148.534897 454.243835,147.985077 
	C454.717102,147.914291 455.256073,148.173264 455.946533,148.703644 
z"/>
<path fill="#E9271B" opacity="1.000000" stroke="none" 
	d="
M491.173706,197.629639 
	C490.837524,197.457275 490.456879,196.967941 490.112152,196.134613 
	C490.475128,196.297943 490.802185,196.805298 491.173706,197.629639 
z"/>
<path fill="#E9271B" opacity="1.000000" stroke="none" 
	d="
M492.108215,199.656204 
	C491.794403,199.477509 491.439484,198.987274 491.095032,198.161606 
	C491.426025,198.332336 491.746552,198.838501 492.108215,199.656204 
z"/>
<path fill="#E82619" opacity="1.000000" stroke="none" 
	d="
M467.386322,160.440826 
	C466.940155,160.341690 466.499359,159.929352 466.050934,159.175217 
	C466.492767,159.264816 466.942230,159.696213 467.386322,160.440826 
z"/>
<path fill="#E92A1D" opacity="1.000000" stroke="none" 
	d="
M147.608383,412.595490 
	C148.050064,412.688751 148.501404,413.091919 148.951035,413.838623 
	C148.505569,413.756592 148.061813,413.330994 147.608383,412.595490 
z"/>
<path fill="#E92A1D" opacity="1.000000" stroke="none" 
	d="
M156.057434,421.286926 
	C156.487518,421.257629 157.077530,421.488495 157.702423,422.053864 
	C157.230667,422.107941 156.724014,421.827484 156.057434,421.286926 
z"/>
<path fill="#E82619" opacity="1.000000" stroke="none" 
	d="
M358.280029,470.017303 
	C358.230194,469.830780 358.440247,469.545532 358.893463,469.142365 
	C358.937714,469.322510 358.738831,469.620544 358.280029,470.017303 
z"/>
<path fill="#E92A1D" opacity="1.000000" stroke="none" 
	d="
M159.804962,424.428345 
	C160.082916,424.332764 160.416992,424.543610 160.836624,425.051331 
	C160.568497,425.143707 160.214798,424.939240 159.804962,424.428345 
z"/>
<path fill="#E92A1D" opacity="1.000000" stroke="none" 
	d="
M158.731842,423.512878 
	C159.030777,423.379669 159.380981,423.541260 159.781036,424.007446 
	C159.481644,424.143860 159.132385,423.975769 158.731842,423.512878 
z"/>
<path fill="#E92A1D" opacity="1.000000" stroke="none" 
	d="
M157.698425,422.552307 
	C158.026993,422.402130 158.376724,422.556152 158.758148,423.017731 
	C158.433105,423.169037 158.076355,423.012787 157.698425,422.552307 
z"/>
<path fill="#E92A1D" opacity="1.000000" stroke="none" 
	d="
M146.692947,411.565735 
	C147.026184,411.399323 147.374542,411.548767 147.750000,412.003357 
	C147.420746,412.166199 147.064407,412.023926 146.692947,411.565735 
z"/>
<path fill="#E92A1D" opacity="1.000000" stroke="none" 
	d="
M145.706299,410.541931 
	C146.018127,410.387421 146.368851,410.541534 146.752197,411.001160 
	C146.438278,411.154602 146.091736,411.002563 145.706299,410.541931 
z"/>
<path fill="#E92A1D" opacity="1.000000" stroke="none" 
	d="
M143.773132,408.441986 
	C144.040909,408.333588 144.385101,408.514954 144.769409,409.000977 
	C144.489517,409.114319 144.169540,408.923035 143.773132,408.441986 
z"/>
<path fill="#E92A1D" opacity="1.000000" stroke="none" 
	d="
M144.725754,409.511810 
	C145.021896,409.375305 145.371231,409.538727 145.758911,410.007721 
	C145.457825,410.146088 145.118393,409.978912 144.725754,409.511810 
z"/>
<path fill="#E82619" opacity="1.000000" stroke="none" 
	d="
M467.947327,160.800995 
	C467.767761,160.959305 467.519073,160.961716 467.407776,160.768066 
	C467.545135,160.572021 467.878235,160.645096 467.947327,160.800995 
z"/>
<path fill="#E82619" opacity="1.000000" stroke="none" 
	d="
M464.086212,156.691315 
	C463.892853,156.733307 463.572327,156.517471 463.155457,156.020020 
	C463.359070,155.970123 463.659058,156.201797 464.086212,156.691315 
z"/>
<path fill="#E82619" opacity="1.000000" stroke="none" 
	d="
M462.136047,154.675491 
	C461.938171,154.726929 461.600983,154.520844 461.159790,154.029175 
	C461.369446,153.968369 461.683105,154.193176 462.136047,154.675491 
z"/>
<path fill="#E82619" opacity="1.000000" stroke="none" 
	d="
M454.255981,147.512787 
	C453.948059,147.649185 453.604218,147.480225 453.201508,147.012466 
	C453.501770,146.878265 453.860901,147.042862 454.255981,147.512787 
z"/>
<path fill="#E82619" opacity="1.000000" stroke="none" 
	d="
M453.194885,146.525375 
	C452.930145,146.713348 452.583008,146.597137 452.112976,146.228088 
	C452.364258,146.057251 452.738373,146.139236 453.194885,146.525375 
z"/>
<path fill="#E72115" opacity="1.000000" stroke="none" 
	d="
M187.727875,119.925629 
	C187.729095,120.084969 187.493530,120.274857 187.153778,120.301323 
	C187.049591,120.137901 187.491104,119.956184 187.727875,119.925629 
z"/>
<path fill="#FEFCFC" opacity="1.000000" stroke="none" 
	d="
M437.930603,245.609512 
	C437.930603,245.609512 437.795319,245.791260 437.893341,246.189392 
	C438.265717,246.804794 438.540070,247.022095 438.814423,247.239380 
	C438.814423,247.239380 438.762573,247.092010 438.673187,247.522934 
	C439.683685,250.691223 440.783539,253.428604 441.883392,256.165985 
	C441.883392,256.165985 441.890350,256.030487 441.872803,256.442505 
	C444.114868,267.323181 446.374420,277.791809 448.634003,288.260437 
	C448.788391,293.163818 448.773651,298.080200 449.148834,302.966644 
	C449.468781,307.133667 448.047852,310.123932 443.707855,312.453186 
	C434.070221,312.880493 425.084290,312.904297 416.098328,312.928131 
	C414.777924,310.713074 413.457520,308.498016 412.387695,305.769592 
	C412.825623,304.852539 413.013000,304.448883 413.200378,304.045227 
	C413.525360,304.048798 413.772369,303.911774 414.314880,303.306152 
	C414.986298,302.663177 415.284241,302.348206 415.582184,302.033234 
	C415.582184,302.033234 415.706299,302.221802 416.284973,302.147949 
	C421.744812,302.074127 426.625916,302.074127 432.678650,302.074127 
	C431.374023,294.134491 430.202820,287.006927 429.031677,279.879364 
	C427.980743,274.548096 427.147827,269.161072 425.803650,263.904816 
	C424.880829,260.296478 423.171997,256.895721 421.956604,253.353455 
	C421.035553,250.669083 420.063538,248.763962 416.682404,250.610016 
	C412.796509,252.731659 408.813995,254.725540 404.714874,256.382690 
	C403.106842,257.032745 399.937866,257.331146 399.447296,256.551575 
	C398.177765,254.534103 397.355164,251.753662 397.622009,249.423035 
	C397.795380,247.908829 400.007538,246.352432 401.631866,245.334625 
	C405.599274,242.848740 409.755890,240.664841 414.861969,237.779892 
	C410.299377,231.669174 406.259125,225.899704 401.837891,220.438690 
	C397.524872,215.111328 393.059631,209.861282 388.210938,205.029129 
	C384.762787,201.592743 380.732269,198.642944 376.599121,196.055054 
	C375.455597,195.339050 372.256104,196.073059 371.317719,197.219986 
	C368.878601,200.201065 367.421204,203.971634 365.074219,207.047256 
	C363.763763,208.764603 361.564331,210.492706 359.569366,210.761795 
	C358.187012,210.948212 355.690674,208.943710 355.111603,207.389328 
	C354.473297,205.675873 354.943024,203.092529 355.837646,201.355515 
	C358.045380,197.068848 360.772308,193.049576 363.681335,188.282303 
	C360.557037,186.842636 357.932770,185.516785 355.220459,184.405975 
	C347.841187,181.383835 340.510895,178.202820 332.982086,175.603638 
	C329.798004,174.504395 326.149048,174.810532 322.740509,174.287949 
	C318.399780,173.622421 314.088593,172.764313 308.967834,172.001068 
	C307.149475,172.662582 306.127899,173.312241 305.106354,173.961914 
	C305.053925,175.053650 305.001495,176.145370 304.985291,177.957977 
	C305.052277,179.105209 305.083038,179.531586 305.113770,179.957947 
	C305.057892,181.050919 305.002014,182.143890 304.981689,184.029816 
	C305.050232,185.866699 305.083160,186.910614 305.116119,187.954544 
	C305.058044,189.040695 305.000000,190.126831 304.902344,191.916855 
	C304.809875,192.824371 304.756958,193.028015 304.703979,193.231659 
	C304.105255,193.790558 303.584869,194.682922 302.893036,194.845428 
	C300.869141,195.320847 298.614380,196.084595 296.777313,195.569122 
	C295.800629,195.295074 295.033691,192.622955 294.979279,191.006134 
	C294.772919,184.872086 294.896179,178.726944 294.896179,171.797501 
	C287.091492,172.984055 279.583801,173.886093 272.179749,175.322327 
	C265.552551,176.607880 259.039551,178.482132 251.862701,180.449661 
	C250.461929,181.136703 249.674622,181.470718 248.887314,181.804718 
	C248.345367,181.985138 247.803421,182.165558 246.805695,182.644897 
	C245.846191,183.264618 245.342453,183.585403 244.838715,183.906158 
	C244.838715,183.906158 244.958313,183.927856 244.645386,183.914520 
	C243.831085,184.232208 243.329727,184.563232 242.828354,184.894257 
	C242.828354,184.894257 242.952377,184.920273 242.637650,184.907349 
	C241.816925,185.218170 241.310913,185.541916 240.804916,185.865646 
	C240.804916,185.865646 240.940689,185.894836 240.625443,185.881546 
	C239.811295,186.204300 239.312408,186.540359 238.813522,186.876419 
	C238.813522,186.876419 238.930832,186.898148 238.621155,186.907196 
	C238.119858,187.205887 237.928223,187.495544 237.736603,187.785217 
	C237.736603,187.785217 237.673096,187.526886 237.250961,187.626328 
	C237.173752,188.883652 237.518677,190.041519 237.863586,191.199402 
	C237.863586,191.199402 237.899048,191.067993 237.899994,191.362762 
	C238.268036,192.101562 238.635162,192.545593 239.002289,192.989609 
	C240.923080,195.974014 243.026001,198.861893 244.682251,201.986526 
	C245.428650,203.394684 246.091843,206.047165 245.383774,206.787552 
	C243.669281,208.580261 241.244675,209.973022 238.855164,210.689316 
	C238.021423,210.939240 236.198090,208.914902 235.266464,207.614197 
	C232.723221,204.063400 230.616104,200.181168 227.877304,196.802231 
	C227.150330,195.905334 224.254471,195.596115 223.224869,196.296539 
	C213.349258,203.014801 205.071396,211.538559 197.317596,220.531265 
	C193.880646,224.517410 190.968674,228.988678 188.105759,233.425156 
	C186.382095,236.096176 185.698990,238.616867 189.826340,240.522324 
	C193.731979,242.325424 197.525696,244.777496 200.638397,247.717316 
	C202.157135,249.151718 203.083191,252.737686 202.381287,254.655869 
	C201.216248,257.839722 196.732422,258.028381 193.925095,256.208557 
	C189.864563,253.576309 185.568054,251.308105 180.801910,248.555191 
	C172.324890,263.675049 169.095947,279.620758 167.966217,297.041229 
	C168.001282,299.198578 168.001282,300.463501 168.001282,302.254272 
	C173.725891,302.254272 179.035263,302.254272 184.344650,302.254272 
	C188.229614,306.854645 188.229523,308.364716 183.693146,312.506714 
	C174.042358,312.816437 165.042496,312.751709 156.042633,312.686951 
	C148.530701,308.917664 149.446487,301.840912 150.136337,295.566193 
	C151.191376,285.969788 152.489136,276.246368 155.208038,267.026367 
	C158.438293,256.072296 162.669128,245.299728 167.613861,234.999359 
	C171.855774,226.163071 177.653015,218.064117 182.915207,209.735611 
	C183.838150,208.274872 185.515350,207.290726 187.210846,205.595291 
	C187.770172,204.744461 187.962860,204.384796 188.155548,204.025116 
	C188.155548,204.025116 188.013107,204.059692 188.308014,204.034943 
	C188.797241,203.690033 188.991531,203.369873 189.185822,203.049713 
	C189.185837,203.049713 189.043350,203.029129 189.313843,203.006119 
	C189.803650,202.674026 190.022980,202.364944 190.242310,202.055847 
	C191.440613,200.964905 192.638916,199.873962 194.185989,198.357590 
	C194.755890,197.635513 194.977020,197.338867 195.198151,197.042206 
	C196.085129,196.294342 196.972122,195.546494 198.213165,194.390259 
	C198.765274,193.665695 198.963318,193.349487 199.161377,193.033295 
	C199.161392,193.033295 199.020386,193.031342 199.324417,193.013977 
	C199.901459,192.689072 200.174469,192.381531 200.447479,192.073990 
	C205.739563,187.781128 210.932831,183.357025 216.373077,179.260956 
	C218.506119,177.654922 221.192520,176.783844 224.124542,175.226578 
	C225.483185,174.299545 226.344162,173.723999 227.205154,173.148438 
	C227.205154,173.148438 227.070404,173.107285 227.378326,173.115540 
	C228.180710,172.783478 228.675186,172.443161 229.169662,172.102844 
	C229.169662,172.102844 229.050003,172.073364 229.351776,172.074249 
	C230.145584,171.738663 230.637650,171.402191 231.129700,171.065720 
	C231.129700,171.065720 231.042923,171.045883 231.334381,171.038223 
	C231.840088,170.758286 232.054337,170.486008 232.268585,170.213715 
	C232.268570,170.213715 232.112579,170.245193 232.490143,170.308548 
	C233.623489,169.940231 234.379288,169.508545 235.135086,169.076859 
	C235.135086,169.076859 235.040771,169.056854 235.377640,169.050049 
	C236.872238,168.408417 238.029968,167.773560 239.187714,167.138733 
	C239.187714,167.138733 239.060867,167.127808 239.448746,167.122620 
	C243.942474,165.447449 248.048309,163.777466 252.154160,162.107483 
	C252.154160,162.107483 252.024338,162.111099 252.440750,162.131363 
	C260.601929,160.109085 268.346710,158.066544 276.091461,156.023987 
	C278.452637,155.800507 280.813843,155.577026 283.762939,155.571533 
	C289.118591,155.529114 293.892609,154.972656 298.652740,155.073425 
	C307.098938,155.252228 315.536682,155.829819 323.977966,156.240570 
	C323.977966,156.240555 323.946106,156.063660 323.871216,156.384552 
	C324.173889,156.738693 324.551483,156.771927 324.929077,156.805161 
	C336.282990,158.374924 347.490692,160.858902 357.642914,166.183899 
	C370.271423,172.807693 382.804474,179.756027 394.671234,187.630493 
	C400.795563,191.694458 405.765320,197.749527 410.578735,203.474945 
	C416.732513,210.794601 422.202179,218.689423 428.020691,226.951538 
	C428.356567,227.771133 428.638397,227.975586 428.920227,228.180038 
	C428.920227,228.180038 428.923340,228.073135 428.991699,228.380676 
	C429.663513,229.522949 430.266968,230.357666 430.870422,231.192383 
	C430.870422,231.192383 430.910339,231.062393 430.905701,231.365021 
	C431.238983,232.162613 431.576843,232.657578 431.914734,233.152557 
	C431.914734,233.152557 431.934906,233.050797 431.940643,233.350647 
	C432.224701,233.856934 432.503021,234.063385 432.781311,234.269836 
	C432.781311,234.269836 432.723633,234.119644 432.650696,234.504669 
	C433.026550,235.637497 433.475342,236.385284 433.924103,237.133087 
	C433.924103,237.133087 433.948944,237.038177 433.951599,237.341812 
	C434.275299,238.146759 434.596344,238.648071 434.917358,239.149384 
	C434.917358,239.149384 434.941376,239.040054 434.932495,239.349396 
	C435.248383,240.161880 435.573151,240.665024 435.897919,241.168167 
	C435.897919,241.168167 435.923462,241.045929 435.910217,241.361526 
	C436.213989,242.186981 436.531036,242.696838 436.848083,243.206711 
	C436.848083,243.206711 436.899017,243.061050 436.871826,243.422791 
	C437.206635,244.392853 437.568634,245.001175 437.930603,245.609512 
z"/>
<path fill="#272F33" opacity="1.000000" stroke="none" 
	d="
M322.105103,314.385956 
	C321.983887,314.860260 321.862640,315.334595 321.219849,316.054321 
	C320.472382,316.889130 320.246490,317.478577 320.020630,318.067993 
	C318.246490,319.981873 316.472351,321.895721 314.069153,323.936218 
	C312.975098,324.431671 312.510071,324.800476 312.045074,325.169312 
	C312.045074,325.169312 312.062531,325.072021 311.743073,325.057953 
	C310.619354,325.675629 309.815094,326.307373 309.010834,326.939148 
	C309.010834,326.939148 308.721649,327.118500 308.134247,327.080231 
	C306.040741,327.628387 304.534668,328.214813 303.028564,328.801239 
	C302.262054,328.873230 301.495514,328.945221 300.207489,328.743774 
	C299.134186,328.617249 298.582428,328.764160 298.030640,328.911072 
	C297.569336,328.947174 297.108032,328.983276 296.119141,328.628540 
	C293.619110,327.853180 291.646606,327.468689 289.674133,327.084198 
	C289.674133,327.084198 289.298950,327.098450 289.011963,326.794006 
	C288.482697,326.243713 288.189636,326.105774 287.845734,326.075775 
	C287.845734,326.075775 287.961731,326.064362 287.816498,325.830627 
	C287.074829,325.422302 286.478394,325.247650 285.881958,325.073029 
	C285.881958,325.073029 285.962585,325.056183 285.890167,324.839661 
	C285.211670,324.415833 284.605621,324.208588 283.999542,324.001312 
	C276.381989,317.569916 272.561646,309.835541 274.669495,299.540771 
	C275.427826,295.837280 274.928925,292.302063 271.791382,288.828583 
	C261.135803,277.032288 250.952011,264.798096 240.950668,252.437698 
	C239.728165,250.926834 240.706299,247.635330 240.664612,245.169037 
	C242.929932,245.240265 245.871201,244.419601 247.344315,245.536087 
	C253.955048,250.546417 260.165710,256.087128 266.487549,261.475433 
	C273.805939,267.713165 281.089569,273.991638 288.545654,280.387421 
	C302.998383,277.469269 310.008331,275.883728 320.019135,288.669617 
	C320.406616,289.476318 320.636658,289.720001 320.866730,289.963715 
	C320.866730,289.963715 321.006622,290.390839 321.015930,291.026917 
	C321.705231,298.179230 322.385193,304.695404 323.065125,311.211609 
	C323.065125,311.211609 323.055786,311.628815 322.736908,312.038452 
	C322.313721,313.094055 322.209412,313.740021 322.105103,314.385956 
z"/>
<path fill="#0E8D68" opacity="1.000000" stroke="none" 
	d="
M241.198425,113.294273 
	C247.036804,114.366020 253.120453,115.736511 259.219910,117.032547 
	C265.733582,118.416595 272.262177,119.730362 278.880798,121.445877 
	C266.468414,119.064713 253.959534,116.312477 241.198425,113.294273 
z"/>
<path fill="#E9271B" opacity="1.000000" stroke="none" 
	d="
M428.983398,280.248199 
	C430.202820,287.006927 431.374023,294.134491 432.678650,302.074127 
	C426.625916,302.074127 421.744812,302.074127 416.390015,302.106628 
	C420.379822,301.535156 424.843353,300.931213 430.062653,300.224976 
	C429.762512,295.568054 429.439392,290.738190 429.146118,285.906525 
	C429.039246,284.145569 429.003418,282.380310 428.983398,280.248199 
z"/>
<path fill="#E9271B" opacity="1.000000" stroke="none" 
	d="
M448.946594,288.009003 
	C446.374420,277.791809 444.114868,267.323181 441.805939,256.453918 
	C443.804047,262.144684 446.208374,268.145966 447.776581,274.358337 
	C448.866089,278.674500 448.805817,283.280853 448.946594,288.009003 
z"/>
<path fill="#E71A0D" opacity="1.000000" stroke="none" 
	d="
M323.751953,155.897400 
	C315.536682,155.829819 307.098938,155.252228 298.652740,155.073425 
	C293.892609,154.972656 289.118591,155.529114 284.139374,155.452393 
	C284.631744,154.757599 285.347198,154.067398 286.037720,154.091507 
	C298.535553,154.527817 311.030426,155.050201 323.751953,155.897400 
z"/>
<path fill="#0E8D68" opacity="1.000000" stroke="none" 
	d="
M328.423889,120.870728 
	C329.822693,120.116753 331.579620,119.249992 333.435211,118.747238 
	C340.708191,116.776665 348.012299,114.920937 355.710632,113.031097 
	C348.806213,115.358284 341.509216,117.720139 334.175964,119.963539 
	C332.455994,120.489716 330.613495,120.615303 328.423889,120.870728 
z"/>
<path fill="#E92A1D" opacity="1.000000" stroke="none" 
	d="
M275.644958,156.009491 
	C268.346710,158.066544 260.601929,160.109085 252.455994,162.194489 
	C259.029633,157.413956 267.081482,156.583740 275.644958,156.009491 
z"/>
<path fill="#152B31" opacity="1.000000" stroke="none" 
	d="
M323.381958,310.972290 
	C322.385193,304.695404 321.705231,298.179230 321.037903,291.250580 
	C325.495239,296.995605 326.007782,303.676514 323.381958,310.972290 
z"/>
<path fill="#E50D03" opacity="1.000000" stroke="none" 
	d="
M415.968140,313.207947 
	C425.084290,312.904297 434.070221,312.880493 443.505310,312.719788 
	C443.327454,313.035889 442.697601,313.886322 442.073914,313.881805 
	C433.328125,313.818756 424.583130,313.639130 415.968140,313.207947 
z"/>
<path fill="#E50D03" opacity="1.000000" stroke="none" 
	d="
M156.243866,313.066589 
	C165.042496,312.751709 174.042358,312.816437 183.501907,312.795288 
	C183.476273,313.098358 182.988068,313.829437 182.506073,313.825348 
	C173.818634,313.751801 165.131943,313.589508 156.243866,313.066589 
z"/>
<path fill="#E92A1D" opacity="1.000000" stroke="none" 
	d="
M251.739624,162.074142 
	C248.048309,163.777466 243.942474,165.447449 239.463470,167.184570 
	C243.168564,165.514725 247.246811,163.777756 251.739624,162.074142 
z"/>
<path fill="#E71A0D" opacity="1.000000" stroke="none" 
	d="
M184.031036,301.919098 
	C179.035263,302.254272 173.725891,302.254272 168.001282,302.254272 
	C168.001282,300.463501 168.001282,299.198578 168.048676,297.487518 
	C169.026962,300.287292 171.073303,301.375671 174.482452,301.091766 
	C177.526016,300.838379 180.636490,301.388428 184.031036,301.919098 
z"/>
<path fill="#E9271B" opacity="1.000000" stroke="none" 
	d="
M441.923462,255.756500 
	C440.783539,253.428604 439.683685,250.691223 438.611084,247.570312 
	C439.746735,249.906845 440.855133,252.626938 441.923462,255.756500 
z"/>
<path fill="#102B32" opacity="1.000000" stroke="none" 
	d="
M289.945129,327.341492 
	C291.646606,327.468689 293.619110,327.853180 295.776733,328.563049 
	C294.046631,328.458557 292.131378,328.028656 289.945129,327.341492 
z"/>
<path fill="#102B32" opacity="1.000000" stroke="none" 
	d="
M303.384521,328.811707 
	C304.534668,328.214813 306.040741,327.628387 307.964661,327.066711 
	C306.835144,327.668396 305.287811,328.245300 303.384521,328.811707 
z"/>
<path fill="#102B32" opacity="1.000000" stroke="none" 
	d="
M309.324890,326.909668 
	C309.815094,326.307373 310.619354,325.675629 311.787109,325.080383 
	C311.313385,325.704620 310.476135,326.292389 309.324890,326.909668 
z"/>
<path fill="#E92A1D" opacity="1.000000" stroke="none" 
	d="
M430.914307,230.810760 
	C430.266968,230.357666 429.663513,229.522949 428.940277,228.395370 
	C429.533081,228.878052 430.245667,229.653595 430.914307,230.810760 
z"/>
<path fill="#E92A1D" opacity="1.000000" stroke="none" 
	d="
M237.913757,190.734436 
	C237.518677,190.041519 237.173752,188.883652 237.118011,187.630371 
	C237.592773,188.446487 237.778351,189.357986 237.913757,190.734436 
z"/>
<path fill="#E92A1D" opacity="1.000000" stroke="none" 
	d="
M249.046326,182.089554 
	C249.674622,181.470718 250.461929,181.136703 251.582794,180.722717 
	C251.012680,181.219955 250.109024,181.797180 249.046326,182.089554 
z"/>
<path fill="#E92A1D" opacity="1.000000" stroke="none" 
	d="
M226.838745,173.094528 
	C226.344162,173.723999 225.483185,174.299545 224.306732,174.918015 
	C224.818283,174.320816 225.645309,173.680710 226.838745,173.094528 
z"/>
<path fill="#E72115" opacity="1.000000" stroke="none" 
	d="
M305.402039,173.852417 
	C306.127899,173.312241 307.149475,172.662582 308.561310,172.069275 
	C307.866943,172.664703 306.782349,173.203812 305.402039,173.852417 
z"/>
<path fill="#E92A1D" opacity="1.000000" stroke="none" 
	d="
M238.815033,167.087234 
	C238.029968,167.773560 236.872238,168.408417 235.378464,169.098236 
	C236.175735,168.447403 237.309052,167.741577 238.815033,167.087234 
z"/>
<path fill="#E72115" opacity="1.000000" stroke="none" 
	d="
M305.368347,187.751282 
	C305.083160,186.910614 305.050232,185.866699 305.064819,184.433411 
	C305.281799,185.212051 305.451172,186.380051 305.368347,187.751282 
z"/>
<path fill="#E92A1D" opacity="1.000000" stroke="none" 
	d="
M234.763901,169.055466 
	C234.379288,169.508545 233.623489,169.940231 232.534363,170.374695 
	C232.931595,169.929688 233.662155,169.481888 234.763901,169.055466 
z"/>
<path fill="#102B32" opacity="1.000000" stroke="none" 
	d="
M284.167847,324.242798 
	C284.605621,324.208588 285.211670,324.415833 285.886169,324.880646 
	C285.415100,324.920197 284.875610,324.702209 284.167847,324.242798 
z"/>
<path fill="#E92A1D" opacity="1.000000" stroke="none" 
	d="
M433.947906,236.762299 
	C433.475342,236.385284 433.026550,235.637497 432.590332,234.557861 
	C433.059174,234.947830 433.515442,235.669662 433.947906,236.762299 
z"/>
<path fill="#0E8D68" opacity="1.000000" stroke="none" 
	d="
M357.327515,113.018539 
	C357.533997,112.656456 358.048981,112.381317 358.872253,112.172264 
	C358.665680,112.527405 358.150848,112.816444 357.327515,113.018539 
z"/>
<path fill="#E92A1D" opacity="1.000000" stroke="none" 
	d="
M436.880859,242.866180 
	C436.531036,242.696838 436.213989,242.186981 435.847778,241.362457 
	C436.170288,241.540421 436.541931,242.033035 436.880859,242.866180 
z"/>
<path fill="#E92A1D" opacity="1.000000" stroke="none" 
	d="
M228.830566,172.090118 
	C228.675186,172.443161 228.180710,172.783478 227.377533,173.185974 
	C227.543030,172.857910 228.017258,172.467651 228.830566,172.090118 
z"/>
<path fill="#E92A1D" opacity="1.000000" stroke="none" 
	d="
M238.953217,192.676987 
	C238.635162,192.545593 238.268036,192.101562 237.831940,191.363861 
	C238.143341,191.501572 238.523743,191.932968 238.953217,192.676987 
z"/>
<path fill="#102B32" opacity="1.000000" stroke="none" 
	d="
M298.351898,328.958008 
	C298.582428,328.764160 299.134186,328.617249 299.824921,328.686523 
	C299.533630,328.936768 299.103394,328.970856 298.351898,328.958008 
z"/>
<path fill="#E72115" opacity="1.000000" stroke="none" 
	d="
M305.334717,179.826904 
	C305.083038,179.531586 305.052277,179.105209 305.068695,178.360870 
	C305.262482,178.593887 305.409058,179.144867 305.334717,179.826904 
z"/>
<path fill="#E92A1D" opacity="1.000000" stroke="none" 
	d="
M245.171463,183.909760 
	C245.342453,183.585403 245.846191,183.264618 246.656677,182.891663 
	C246.477005,183.197433 245.990601,183.555389 245.171463,183.909760 
z"/>
<path fill="#E92A1D" opacity="1.000000" stroke="none" 
	d="
M243.164886,184.907166 
	C243.329727,184.563232 243.831085,184.232208 244.643463,183.853775 
	C244.470123,184.177597 243.985764,184.548828 243.164886,184.907166 
z"/>
<path fill="#E92A1D" opacity="1.000000" stroke="none" 
	d="
M437.933411,245.218628 
	C437.568634,245.001175 437.206635,244.392853 436.795044,243.415344 
	C437.142365,243.640030 437.539307,244.233871 437.933411,245.218628 
z"/>
<path fill="#102B32" opacity="1.000000" stroke="none" 
	d="
M286.042603,325.340210 
	C286.478394,325.247650 287.074829,325.422302 287.810852,325.888672 
	C287.368042,325.989410 286.785614,325.798401 286.042603,325.340210 
z"/>
<path fill="#102B32" opacity="1.000000" stroke="none" 
	d="
M312.348145,325.127350 
	C312.510071,324.800476 312.975098,324.431671 313.757935,324.041931 
	C313.600922,324.375824 313.126068,324.730591 312.348145,325.127350 
z"/>
<path fill="#152B31" opacity="1.000000" stroke="none" 
	d="
M322.357178,314.166199 
	C322.209412,313.740021 322.313721,313.094055 322.674561,312.237549 
	C322.823822,312.666809 322.716553,313.306610 322.357178,314.166199 
z"/>
<path fill="#0E8D68" opacity="1.000000" stroke="none" 
	d="
M359.518616,112.326935 
	C359.681000,112.037018 360.147644,111.732872 360.784302,111.640961 
	C360.577179,112.006371 360.200012,112.159538 359.518616,112.326935 
z"/>
<path fill="#E92A1D" opacity="1.000000" stroke="none" 
	d="
M239.154846,186.900558 
	C239.312408,186.540359 239.811295,186.204300 240.621582,185.812225 
	C240.454041,186.145676 239.975098,186.535187 239.154846,186.900558 
z"/>
<path fill="#152B31" opacity="1.000000" stroke="none" 
	d="
M320.250977,317.870789 
	C320.246490,317.478577 320.472382,316.889130 321.004211,316.181427 
	C321.033875,316.599976 320.757599,317.136810 320.250977,317.870789 
z"/>
<path fill="#E92A1D" opacity="1.000000" stroke="none" 
	d="
M241.144989,185.893494 
	C241.310913,185.541916 241.816925,185.218170 242.636383,184.844009 
	C242.461594,185.169510 241.973312,185.545425 241.144989,185.893494 
z"/>
<path fill="#E92A1D" opacity="1.000000" stroke="none" 
	d="
M434.917236,238.818817 
	C434.596344,238.648071 434.275299,238.146759 433.902618,237.339233 
	C434.206360,237.518082 434.561737,238.003174 434.917236,238.818817 
z"/>
<path fill="#E92A1D" opacity="1.000000" stroke="none" 
	d="
M230.798447,171.075012 
	C230.637650,171.402191 230.145584,171.738663 229.350754,172.135864 
	C229.521057,171.825836 229.994125,171.455063 230.798447,171.075012 
z"/>
<path fill="#E92A1D" opacity="1.000000" stroke="none" 
	d="
M431.916046,232.817444 
	C431.576843,232.657578 431.238983,232.162613 430.837799,231.361877 
	C431.155457,231.531540 431.536407,232.006943 431.916046,232.817444 
z"/>
<path fill="#E92A1D" opacity="1.000000" stroke="none" 
	d="
M435.909058,240.833618 
	C435.573151,240.665024 435.248383,240.161880 434.876526,239.348389 
	C435.193024,239.525040 435.556641,240.012054 435.909058,240.833618 
z"/>
<path fill="#102B32" opacity="1.000000" stroke="none" 
	d="
M287.927368,326.326141 
	C288.189636,326.105774 288.482697,326.243713 288.847687,326.703125 
	C288.649963,326.803314 288.329468,326.689911 287.927368,326.326141 
z"/>
<path fill="#E72115" opacity="1.000000" stroke="none" 
	d="
M198.891571,193.142883 
	C198.963318,193.349487 198.765274,193.665695 198.311111,194.112457 
	C198.243927,193.912827 198.432846,193.582642 198.891571,193.142883 
z"/>
<path fill="#E92A1D" opacity="1.000000" stroke="none" 
	d="
M231.980576,170.229797 
	C232.054337,170.486008 231.840088,170.758286 231.334167,171.082718 
	C231.259171,170.838547 231.475876,170.542221 231.980576,170.229797 
z"/>
<path fill="#E72115" opacity="1.000000" stroke="none" 
	d="
M194.933121,197.153687 
	C194.977020,197.338867 194.755890,197.635513 194.289490,198.068115 
	C194.252182,197.891098 194.460129,197.578125 194.933121,197.153687 
z"/>
<path fill="#E72115" opacity="1.000000" stroke="none" 
	d="
M189.961578,202.143066 
	C190.022980,202.364944 189.803650,202.674026 189.311371,203.078064 
	C189.252563,202.858780 189.466705,202.544540 189.961578,202.143066 
z"/>
<path fill="#E72115" opacity="1.000000" stroke="none" 
	d="
M188.909088,203.138229 
	C188.991531,203.369873 188.797241,203.690033 188.331375,204.104401 
	C188.250656,203.874664 188.441498,203.550705 188.909088,203.138229 
z"/>
<path fill="#E72115" opacity="1.000000" stroke="none" 
	d="
M187.865509,204.164703 
	C187.962860,204.384796 187.770172,204.744461 187.322388,205.289749 
	C187.236679,205.085022 187.406067,204.694656 187.865509,204.164703 
z"/>
<path fill="#E72115" opacity="1.000000" stroke="none" 
	d="
M304.907471,193.108032 
	C304.756958,193.028015 304.809875,192.824371 304.963745,192.321686 
	C305.205963,192.256256 305.359528,192.484390 305.470062,192.731750 
	C305.481476,192.757370 305.236755,192.897446 304.907471,193.108032 
z"/>
<path fill="#E92A1D" opacity="1.000000" stroke="none" 
	d="
M428.876495,227.934769 
	C428.638397,227.975586 428.356567,227.771133 428.099030,227.301544 
	C428.468628,227.135849 428.705109,227.353546 428.876495,227.934769 
z"/>
<path fill="#E72115" opacity="1.000000" stroke="none" 
	d="
M200.135544,192.152908 
	C200.174469,192.381531 199.901459,192.689072 199.329132,193.084335 
	C199.294403,192.858643 199.559006,192.545242 200.135544,192.152908 
z"/>
<path fill="#E92A1D" opacity="1.000000" stroke="none" 
	d="
M432.765137,233.978638 
	C432.503021,234.063385 432.224701,233.856934 431.888855,233.353439 
	C432.137177,233.266724 432.443085,233.477081 432.765137,233.978638 
z"/>
<path fill="#E9271B" opacity="1.000000" stroke="none" 
	d="
M412.898865,304.198578 
	C413.013000,304.448883 412.825623,304.852539 412.342224,305.416901 
	C412.229889,305.169037 412.413605,304.760498 412.898865,304.198578 
z"/>
<path fill="#E9271B" opacity="1.000000" stroke="none" 
	d="
M438.792725,246.955185 
	C438.540070,247.022095 438.265717,246.804794 437.961578,246.279816 
	C438.211517,246.205078 438.491241,246.438034 438.792725,246.955185 
z"/>
<path fill="#E71A0D" opacity="1.000000" stroke="none" 
	d="
M324.789307,156.616806 
	C324.551483,156.771927 324.173889,156.738693 323.785919,156.412933 
	C324.103607,156.119003 324.394928,156.221680 324.789307,156.616806 
z"/>
<path fill="#152B31" opacity="1.000000" stroke="none" 
	d="
M320.852905,289.699097 
	C320.636658,289.720001 320.406616,289.476318 320.122498,288.980194 
	C320.325317,288.963348 320.582184,289.198914 320.852905,289.699097 
z"/>
<path fill="#E92A1D" opacity="1.000000" stroke="none" 
	d="
M238.031418,187.763916 
	C237.928223,187.495544 238.119858,187.205887 238.613068,186.848083 
	C238.718521,187.100830 238.522385,187.421738 238.031418,187.763916 
z"/>
<path fill="#E9271B" opacity="1.000000" stroke="none" 
	d="
M415.252258,302.125763 
	C415.284241,302.348206 414.986298,302.663177 414.367493,303.092285 
	C414.338562,302.877045 414.630432,302.547668 415.252258,302.125763 
z"/>
</svg>